<svg width="12" height="14" viewBox="0 0 12 14" fill="none" xmlns="http://www.w3.org/2000/svg">
<path d="M8.88031 1.49188V0.484375C8.88031 0.219583 8.66073 0 8.39594 0C8.13115 0 7.91156 0.219583 7.91156 0.484375V1.45313H3.71364V0.484375C3.71364 0.219583 3.49406 0 3.22926 0C2.96447 0 2.74489 0.219583 2.74489 0.484375V1.49188C1.00114 1.65333 0.155097 2.69313 0.0259305 4.23667C0.0130138 4.42396 0.168014 4.57896 0.348847 4.57896H11.2764C11.4636 4.57896 11.6186 4.4175 11.5993 4.23667C11.4701 2.69313 10.6241 1.65333 8.88031 1.49188Z" fill="#8561E1"/>
<path d="M10.9792 5.54712H0.645833C0.290625 5.54712 0 5.83772 0 6.19293V10.1713C0 12.1088 0.96875 13.4004 3.22917 13.4004H8.39583C10.6562 13.4004 11.625 12.1088 11.625 10.1713V6.19293C11.625 5.83772 11.3344 5.54712 10.9792 5.54712ZM4.01062 10.9527C3.97833 10.9786 3.94604 11.0108 3.91375 11.0302C3.875 11.0561 3.83625 11.0754 3.7975 11.0883C3.75875 11.1077 3.72 11.1206 3.68125 11.1271C3.63604 11.1336 3.59729 11.14 3.55208 11.14C3.46812 11.14 3.38417 11.1206 3.30667 11.0883C3.22271 11.0561 3.15812 11.0108 3.09354 10.9527C2.97729 10.83 2.90625 10.6621 2.90625 10.4942C2.90625 10.3263 2.97729 10.1583 3.09354 10.0356C3.15812 9.97751 3.22271 9.9323 3.30667 9.90001C3.42292 9.84834 3.55208 9.83543 3.68125 9.86126C3.72 9.86772 3.75875 9.88063 3.7975 9.90001C3.83625 9.91293 3.875 9.9323 3.91375 9.95813C3.94604 9.98397 3.97833 10.0098 4.01062 10.0356C4.12687 10.1583 4.19792 10.3263 4.19792 10.4942C4.19792 10.6621 4.12687 10.83 4.01062 10.9527ZM4.01062 8.6923C3.88792 8.80855 3.72 8.87959 3.55208 8.87959C3.38417 8.87959 3.21625 8.80855 3.09354 8.6923C2.97729 8.56959 2.90625 8.40168 2.90625 8.23376C2.90625 8.06584 2.97729 7.89793 3.09354 7.77522C3.27437 7.59438 3.55854 7.53626 3.7975 7.63959C3.88146 7.67188 3.9525 7.71709 4.01062 7.77522C4.12687 7.89793 4.19792 8.06584 4.19792 8.23376C4.19792 8.40168 4.12687 8.56959 4.01062 8.6923ZM6.27104 10.9527C6.14833 11.069 5.98042 11.14 5.8125 11.14C5.64458 11.14 5.47667 11.069 5.35396 10.9527C5.23771 10.83 5.16667 10.6621 5.16667 10.4942C5.16667 10.3263 5.23771 10.1583 5.35396 10.0356C5.59292 9.79668 6.03208 9.79668 6.27104 10.0356C6.38729 10.1583 6.45833 10.3263 6.45833 10.4942C6.45833 10.6621 6.38729 10.83 6.27104 10.9527ZM6.27104 8.6923C6.23875 8.71813 6.20646 8.74397 6.17417 8.7698C6.13542 8.79563 6.09667 8.81501 6.05792 8.82793C6.01917 8.8473 5.98042 8.86022 5.94167 8.86668C5.89646 8.87314 5.85771 8.87959 5.8125 8.87959C5.64458 8.87959 5.47667 8.80855 5.35396 8.6923C5.23771 8.56959 5.16667 8.40168 5.16667 8.23376C5.16667 8.06584 5.23771 7.89793 5.35396 7.77522C5.41208 7.71709 5.48312 7.67188 5.56708 7.63959C5.80604 7.53626 6.09021 7.59438 6.27104 7.77522C6.38729 7.89793 6.45833 8.06584 6.45833 8.23376C6.45833 8.40168 6.38729 8.56959 6.27104 8.6923ZM8.53146 10.9527C8.40875 11.069 8.24083 11.14 8.07292 11.14C7.905 11.14 7.73708 11.069 7.61437 10.9527C7.49812 10.83 7.42708 10.6621 7.42708 10.4942C7.42708 10.3263 7.49812 10.1583 7.61437 10.0356C7.85333 9.79668 8.2925 9.79668 8.53146 10.0356C8.64771 10.1583 8.71875 10.3263 8.71875 10.4942C8.71875 10.6621 8.64771 10.83 8.53146 10.9527ZM8.53146 8.6923C8.49917 8.71813 8.46687 8.74397 8.43458 8.7698C8.39583 8.79563 8.35708 8.81501 8.31833 8.82793C8.27958 8.8473 8.24083 8.86022 8.20208 8.86668C8.15687 8.87314 8.11167 8.87959 8.07292 8.87959C7.905 8.87959 7.73708 8.80855 7.61437 8.6923C7.49812 8.56959 7.42708 8.40168 7.42708 8.23376C7.42708 8.06584 7.49812 7.89793 7.61437 7.77522C7.67896 7.71709 7.74354 7.67188 7.8275 7.63959C7.94375 7.58793 8.07292 7.57501 8.20208 7.60084C8.24083 7.6073 8.27958 7.62022 8.31833 7.63959C8.35708 7.65251 8.39583 7.67188 8.43458 7.69772C8.46687 7.72355 8.49917 7.74938 8.53146 7.77522C8.64771 7.89793 8.71875 8.06584 8.71875 8.23376C8.71875 8.40168 8.64771 8.56959 8.53146 8.6923Z" fill="#8561E1"/>
</svg>
