<svg width="11" height="13" viewBox="0 0 11 13" fill="none" xmlns="http://www.w3.org/2000/svg">
<path d="M7.39069 0H2.84072C0.565737 0 0 0.607866 0 3.03331V9.81011C0 11.411 0.878697 11.7902 1.94397 10.6467L1.94999 10.6407C2.4435 10.1171 3.19581 10.1592 3.62312 10.7309L4.23099 11.5434C4.71848 12.1874 5.5069 12.1874 5.9944 11.5434L6.60227 10.7309C7.0356 10.1532 7.78791 10.111 8.28142 10.6407C9.35271 11.7842 10.2254 11.405 10.2254 9.80409V3.03331C10.2314 0.607866 9.66567 0 7.39069 0ZM6.82495 4.80876L6.52403 5.1157H6.51801L4.69441 6.9393C4.61617 7.01754 4.45367 7.1018 4.33932 7.11383L3.52683 7.2342C3.23192 7.27633 3.02729 7.06569 3.06942 6.7768L3.18377 5.95829C3.20183 5.84394 3.28007 5.68746 3.35831 5.6032L5.18792 3.7796L5.48885 3.47266C5.68746 3.27405 5.91014 3.12961 6.15088 3.12961C6.35551 3.12961 6.57819 3.2259 6.82495 3.47266C7.36661 4.01432 7.19208 4.44163 6.82495 4.80876Z" fill="#4D21DB"/>
</svg>
